<mxfile host="app.diagrams.net" modified="2023-10-06T05:11:10.674Z" agent="Mozilla/5.0 (Macintosh; Intel Mac OS X 10_15_7) AppleWebKit/537.36 (KHTML, like Gecko) Chrome/117.0.0.0 Safari/537.36" version="22.0.3" etag="Lt0tj6BEFItYruuj8qvm" type="github">
  <diagram name="Page-1" id="sb_aVzBF8-2B7OI4f7Hf">
    <mxGraphModel>
      <root>
        <mxCell id="0" />
        <mxCell id="1" parent="0" />
      </root>
    </mxGraphModel>
  </diagram>
</mxfile>
